<?xml version="1.0" encoding="utf-8"?>
<!-- Generator: Adobe Illustrator 27.3.1, SVG Export Plug-In . SVG Version: 6.00 Build 0)  -->
<svg version="1.1" id="Layer_1" xmlns="http://www.w3.org/2000/svg" xmlns:xlink="http://www.w3.org/1999/xlink" x="0px" y="0px"
	 viewBox="0 0 426 448" style="enable-background:new 0 0 426 448;" xml:space="preserve">
<style type="text/css">
	.st0{fill:#FFFFFF;}
	.st1{fill:none;stroke:url(#SVGID_1_);stroke-width:11;}
</style>
<path class="st0" d="M215.9,85.8c-32,18.4-99.2,33.4-128.9,38.5v122.9c10.7,81.2,90.4,112.3,128.9,117.6
	C311,351,341.6,280.7,345,247.2V124.3C297.2,118,239,96,215.9,85.8z"/>
<linearGradient id="SVGID_1_" gradientUnits="userSpaceOnUse" x1="104.3894" y1="310.5269" x2="321.9569" y2="92.9595">
	<stop  offset="0" style="stop-color:#AB292C"/>
	<stop  offset="1" style="stop-color:#6B0000"/>
</linearGradient>
<path class="st1" d="M212.9,84.8c-32,18.4-99.2,33.4-128.9,38.5v122.9c10.7,81.2,90.4,112.3,128.9,117.6
	C308,350,338.6,279.7,342,246.2V123.3C294.2,117,236,95,212.9,84.8z"/>
</svg>
